<?xml version="1.0" encoding="iso-8859-1"?>
<!-- Generator: Adobe Illustrator 19.0.0, SVG Export Plug-In . SVG Version: 6.00 Build 0)  -->
<svg height="22" width="22" version="1.1" id="Capa_1" xmlns="http://www.w3.org/2000/svg"
     xmlns:xlink="http://www.w3.org/1999/xlink" x="0px" y="0px"
     viewBox="0 0 480 480" style="enable-background:new 0 0 480 480;" xml:space="preserve">
<path style="fill:#D80027;" d="M168,472h144V312h160V168H312V8H168v160H8v144h160V472z"/>
    <path style="fill:#231F20;" d="M312,480H168c-4.418,0-8-3.582-8-8V320H8c-4.418,0-8-3.582-8-8V168c0-4.418,3.582-8,8-8h152V8
	c0-4.418,3.582-8,8-8h144c4.418,0,8,3.582,8,8v152h152c4.418,0,8,3.582,8,8v144c0,4.418-3.582,8-8,8H320v152
	C320,476.418,316.418,480,312,480z M176,464h128V312c0-4.418,3.582-8,8-8h152V176H312c-4.418,0-8-3.582-8-8V16H176v152
	c0,4.418-3.582,8-8,8H16v128h152c4.418,0,8,3.582,8,8V464z"/>
    <g>
</g>
    <g>
</g>
    <g>
</g>
    <g>
</g>
    <g>
</g>
    <g>
</g>
    <g>
</g>
    <g>
</g>
    <g>
</g>
    <g>
</g>
    <g>
</g>
    <g>
</g>
    <g>
</g>
    <g>
</g>
    <g>
</g>
</svg>
